  0
SECTION
  2
HEADER
  9
$ACADVER
  1
AC1009
  9
$DWGCODEPAGE
  3
mac-roman
  9
$INSBASE
 10
0.0
 20
0.0
 30
0.0
  9
$EXTMIN
 10
-49.00028990629895
 20
-28.33630482997108
 30
0.0
  9
$EXTMAX
 10
100.0
 20
108.3363048299717
 30
0.0
  9
$LIMMIN
 10
0.0
 20
0.0
  9
$LIMMAX
 10
12.0
 20
9.0
  9
$ORTHOMODE
 70
     0
  9
$REGENMODE
 70
     1
  9
$FILLMODE
 70
     1
  9
$QTEXTMODE
 70
     0
  9
$MIRRTEXT
 70
     1
  9
$DRAGMODE
 70
     2
  9
$LTSCALE
 40
1.0
  9
$OSMODE
 70
    37
  9
$ATTMODE
 70
     1
  9
$TEXTSIZE
 40
0.2
  9
$TRACEWID
 40
0.05
  9
$TEXTSTYLE
  7
STANDARD
  9
$CLAYER
  8
0
  9
$CELTYPE
  6
BYLAYER
  9
$CECOLOR
 62
   256
  9
$DIMSCALE
 40
1.0
  9
$DIMASZ
 40
0.18
  9
$DIMEXO
 40
0.0625
  9
$DIMDLI
 40
0.38
  9
$DIMRND
 40
0.0
  9
$DIMDLE
 40
0.0
  9
$DIMEXE
 40
0.18
  9
$DIMTP
 40
0.0
  9
$DIMTM
 40
0.0
  9
$DIMTXT
 40
0.18
  9
$DIMCEN
 40
0.09
  9
$DIMTSZ
 40
0.0
  9
$DIMTOL
 70
     0
  9
$DIMLIM
 70
     0
  9
$DIMTIH
 70
     1
  9
$DIMTOH
 70
     1
  9
$DIMSE1
 70
     0
  9
$DIMSE2
 70
     0
  9
$DIMTAD
 70
     0
  9
$DIMZIN
 70
     0
  9
$DIMBLK
  1

  9
$DIMASO
 70
     1
  9
$DIMSHO
 70
     1
  9
$DIMPOST
  1

  9
$DIMAPOST
  1

  9
$DIMALT
 70
     0
  9
$DIMALTD
 70
     2
  9
$DIMALTF
 40
25.4
  9
$DIMLFAC
 40
1.0
  9
$DIMTOFL
 70
     0
  9
$DIMTVP
 40
0.0
  9
$DIMTIX
 70
     0
  9
$DIMSOXD
 70
     0
  9
$DIMSAH
 70
     0
  9
$DIMBLK1
  1

  9
$DIMBLK2
  1

  9
$DIMSTYLE
  2
STANDARD
  9
$DIMCLRD
 70
     0
  9
$DIMCLRE
 70
     0
  9
$DIMCLRT
 70
     0
  9
$DIMTFAC
 40
1.0
  9
$DIMGAP
 40
0.09
  9
$LUNITS
 70
     2
  9
$LUPREC
 70
     2
  9
$SKETCHINC
 40
0.1
  9
$FILLETRAD
 40
0.5
  9
$AUNITS
 70
     0
  9
$AUPREC
 70
     0
  9
$MENU
  1
.
  9
$ELEVATION
 40
0.0
  9
$PELEVATION
 40
0.0
  9
$THICKNESS
 40
0.0
  9
$LIMCHECK
 70
     0
  9
$CHAMFERA
 40
0.0
  9
$CHAMFERB
 40
0.0
  9
$SKPOLY
 70
     0
  9
$TDCREATE
 40
2457770.731863426
  9
$TDUPDATE
 40
2457770.731886562
  9
$TDINDWG
 40
0.0000000116
  9
$TDUSRTIMER
 40
0.0000000116
  9
$USRTIMER
 70
     1
  9
$ANGBASE
 50
0.0
  9
$ANGDIR
 70
     0
  9
$PDMODE
 70
     0
  9
$PDSIZE
 40
0.0
  9
$PLINEWID
 40
0.0
  9
$COORDS
 70
     1
  9
$SPLFRAME
 70
     0
  9
$SPLINETYPE
 70
     6
  9
$SPLINESEGS
 70
     8
  9
$ATTDIA
 70
     0
  9
$ATTREQ
 70
     1
  9
$HANDLING
 70
     1
  9
$HANDSEED
  5
10B
  9
$SURFTAB1
 70
     6
  9
$SURFTAB2
 70
     6
  9
$SURFTYPE
 70
     6
  9
$SURFU
 70
     6
  9
$SURFV
 70
     6
  9
$UCSNAME
  2

  9
$UCSORG
 10
0.0
 20
0.0
 30
0.0
  9
$UCSXDIR
 10
1.0
 20
0.0
 30
0.0
  9
$UCSYDIR
 10
0.0
 20
1.0
 30
0.0
  9
$PUCSNAME
  2

  9
$PUCSORG
 10
0.0
 20
0.0
 30
0.0
  9
$PUCSXDIR
 10
1.0
 20
0.0
 30
0.0
  9
$PUCSYDIR
 10
0.0
 20
1.0
 30
0.0
  9
$USERI1
 70
     0
  9
$USERI2
 70
     0
  9
$USERI3
 70
     0
  9
$USERI4
 70
     0
  9
$USERI5
 70
     0
  9
$USERR1
 40
0.0
  9
$USERR2
 40
0.0
  9
$USERR3
 40
0.0
  9
$USERR4
 40
0.0
  9
$USERR5
 40
0.0
  9
$WORLDVIEW
 70
     1
  9
$SHADEDGE
 70
     3
  9
$SHADEDIF
 70
    70
  9
$TILEMODE
 70
     1
  9
$MAXACTVP
 70
    64
  9
$PLIMCHECK
 70
     0
  9
$PEXTMIN
 10
1.000000000000000E+20
 20
1.000000000000000E+20
 30
1.000000000000000E+20
  9
$PEXTMAX
 10
-1.000000000000000E+20
 20
-1.000000000000000E+20
 30
-1.000000000000000E+20
  9
$PLIMMIN
 10
0.0
 20
0.0
  9
$PLIMMAX
 10
12.0
 20
9.0
  9
$UNITMODE
 70
     0
  9
$VISRETAIN
 70
     1
  9
$PLINEGEN
 70
     0
  9
$PSLTSCALE
 70
     1
  0
ENDSEC
  0
SECTION
  2
TABLES
  0
TABLE
  2
VPORT
 70
     1
  0
VPORT
  2
*ACTIVE
 70
     0
 10
0.0
 20
0.0
 11
1.0
 21
1.0
 12
25.49985504685054
 22
40.00000000000031
 13
0.0
 23
0.0
 14
0.5
 24
0.5
 15
0.5
 25
0.5
 16
0.0
 26
0.0
 36
1.0
 17
0.0
 27
0.0
 37
0.0
 40
139.4060618531417
 41
1.09019861607259
 42
50.0
 43
0.0
 44
0.0
 50
0.0
 51
0.0
 71
     0
 72
   100
 73
     1
 74
     3
 75
     0
 76
     0
 77
     0
 78
     0
  0
ENDTAB
  0
TABLE
  2
LTYPE
 70
     2
  0
LTYPE
  2
CONTINUOUS
 70
     0
  3
Solid line
 72
    65
 73
     0
 40
0.0
  0
LTYPE
  2
CENTER
 70
     0
  3

 72
    65
 73
     4
 40
11.0
 49
5.0
 49
-2.0
 49
2.0
 49
-2.0
  0
ENDTAB
  0
TABLE
  2
LAYER
 70
     4
  0
LAYER
  2
0
 70
     0
 62
     7
  6
CONTINUOUS
  0
LAYER
  2
____
 70
     0
 62
     7
  6
CONTINUOUS
  0
LAYER
  2
LAYOUT
 70
     0
 62
     7
  6
CONTINUOUS
  0
LAYER
  2
CENTER_LINE
 70
     0
 62
   254
  6
CENTER
  0
ENDTAB
  0
TABLE
  2
STYLE
 70
     1
  0
STYLE
  2
STANDARD
 70
     0
 40
0.0
 41
1.0
 50
0.0
 71
     0
 42
0.2
  3
txt
  4

  0
ENDTAB
  0
TABLE
  2
VIEW
 70
     0
  0
ENDTAB
  0
TABLE
  2
UCS
 70
     0
  0
ENDTAB
  0
TABLE
  2
APPID
 70
     1
  0
APPID
  2
ACAD
 70
     0
  0
ENDTAB
  0
TABLE
  2
DIMSTYLE
 70
     1
  0
DIMSTYLE
  2
STANDARD
 70
     0
  3

  4

  5

  6

  7

 40
1.0
 41
0.18
 42
0.0625
 43
0.38
 44
0.18
 45
0.0
 46
0.0
 47
0.0
 48
0.0
140
0.18
141
0.09
142
0.0
143
25.4
144
1.0
145
0.0
146
1.0
147
0.09
 71
     0
 72
     0
 73
     1
 74
     1
 75
     0
 76
     0
 77
     0
 78
     0
170
     0
171
     2
172
     0
173
     0
174
     0
175
     0
176
     0
177
     0
178
     0
  0
ENDTAB
  0
ENDSEC
  0
SECTION
  2
BLOCKS
  0
BLOCK
  8
0
  2
$MODEL_SPACE
 70
     0
 10
0.0
 20
0.0
 30
0.0
  3
$MODEL_SPACE
  1

  0
ENDBLK
  5
21
  8
0
  0
BLOCK
 67
     1
  8
0
  2
$PAPER_SPACE
 70
     0
 10
0.0
 20
0.0
 30
0.0
  3
$PAPER_SPACE
  1

  0
ENDBLK
  5
1D
 67
     1
  8
0
  0
ENDSEC
  0
SECTION
  2
ENTITIES
  0
LINE
  5
6B
  8
____
 10
93.45830736142901
 20
27.47180033230609
 30
0.0
 11
99.2511193227629
 21
26.81179277771447
 31
0.0
  0
LINE
  5
6C
  8
____
 10
91.33324516348304
 20
15.1046668157648
 30
0.0
 11
97.01410511720024
 21
13.79313695421246
 31
0.0
  0
LINE
  5
6D
  8
____
 10
87.82184391287244
 20
3.057594888598905
 30
0.0
 11
93.31771708364575
 21
1.111404126554902
 31
0.0
  0
LINE
  5
6E
  8
____
 10
87.82184391287244
 20
76.94240511140175
 30
0.0
 11
93.31771708364575
 21
78.88859587344577
 31
0.0
  0
LINE
  5
6F
  8
____
 10
91.33324516348303
 20
64.89533318423587
 30
0.0
 11
97.01410511720024
 21
66.20686304578821
 31
0.0
  0
LINE
  5
70
  8
____
 10
93.45830736142901
 20
52.52819966769458
 30
0.0
 11
99.2511193227629
 21
53.1882072222862
 31
0.0
  0
LINE
  5
71
  8
____
 10
94.16971009370104
 20
40.00000000000033
 30
0.0
 11
100.0
 21
40.00000000000033
 31
0.0
  0
LINE
  5
72
  8
____
 10
96.33439804599008
 20
28.42232775084877
 30
0.0
 11
96.0468618830196
 21
25.89865523743024
 31
0.0
  0
LINE
  5
73
  8
____
 10
96.0468618830196
 20
25.89865523743024
 30
0.0
 11
90.58221667679838
 21
26.52127291315373
 31
0.0
  0
LINE
  5
74
  8
____
 10
90.58221667679838
 20
26.52127291315373
 30
0.0
 11
90.86975283976886
 21
29.04494542657226
 31
0.0
  0
LINE
  5
75
  8
____
 10
90.86975283976886
 20
29.04494542657226
 30
0.0
 11
96.33439804599008
 21
28.42232775084877
 31
0.0
  0
LINE
  5
76
  8
____
 10
94.2984506805901
 20
15.72350139829746
 30
0.0
 11
93.72707500255666
 21
13.24860143374296
 31
0.0
  0
LINE
  5
77
  8
____
 10
93.72707500255666
 20
13.24860143374296
 30
0.0
 11
88.36803964623789
 21
14.48583223263422
 31
0.0
  0
LINE
  5
78
  8
____
 10
88.36803964623789
 20
14.48583223263422
 30
0.0
 11
88.9394153242713
 21
16.96073219718871
 31
0.0
  0
LINE
  5
79
  8
____
 10
88.9394153242713
 20
16.96073219718871
 30
0.0
 11
94.2984506805901
 21
15.72350139829746
 31
0.0
  0
LINE
  5
7A
  8
____
 10
90.83804272450035
 20
3.336780719103885
 30
0.0
 11
89.99017330204659
 21
0.942471331729763
 31
0.0
  0
LINE
  5
7B
  8
____
 10
89.99017330204659
 20
0.942471331729763
 30
0.0
 11
84.8056451010396
 21
2.778409057515503
 31
0.0
  0
LINE
  5
7C
  8
____
 10
84.8056451010396
 20
2.778409057515503
 30
0.0
 11
85.65351452349337
 21
5.172718444889625
 31
0.0
  0
LINE
  5
7D
  8
____
 10
85.65351452349337
 20
5.172718444889625
 30
0.0
 11
90.83804272450035
 21
3.336780719103885
 31
0.0
  0
LINE
  5
7E
  8
____
 10
90.83804272450035
 20
76.66321928089685
 30
0.0
 11
89.99017330204659
 21
79.05752866827098
 31
0.0
  0
LINE
  5
7F
  8
____
 10
89.99017330204659
 20
79.05752866827098
 30
0.0
 11
84.8056451010396
 21
77.22159094248524
 31
0.0
  0
LINE
  5
80
  8
____
 10
84.8056451010396
 20
77.22159094248524
 30
0.0
 11
85.65351452349337
 21
74.82728155511111
 31
0.0
  0
LINE
  5
81
  8
____
 10
85.65351452349337
 20
74.82728155511111
 30
0.0
 11
90.83804272450035
 21
76.66321928089685
 31
0.0
  0
LINE
  5
82
  8
____
 10
94.2984506805901
 20
64.27649860170328
 30
0.0
 11
93.72707500255666
 21
66.75139856625778
 31
0.0
  0
LINE
  5
83
  8
____
 10
93.72707500255666
 20
66.75139856625778
 30
0.0
 11
88.36803964623789
 21
65.51416776736652
 31
0.0
  0
LINE
  5
84
  8
____
 10
88.36803964623789
 20
65.51416776736652
 30
0.0
 11
88.9394153242713
 21
63.03926780281203
 31
0.0
  0
LINE
  5
85
  8
____
 10
88.9394153242713
 20
63.03926780281203
 30
0.0
 11
94.2984506805901
 21
64.27649860170328
 31
0.0
  0
LINE
  5
86
  8
____
 10
96.33439804599008
 20
51.57767224915197
 30
0.0
 11
96.0468618830196
 21
54.1013447625705
 31
0.0
  0
LINE
  5
87
  8
____
 10
96.0468618830196
 20
54.1013447625705
 30
0.0
 11
90.58221667679838
 21
53.47872708684701
 31
0.0
  0
LINE
  5
88
  8
____
 10
90.58221667679838
 20
53.47872708684701
 30
0.0
 11
90.86975283976886
 21
50.95505457342848
 31
0.0
  0
LINE
  5
89
  8
____
 10
90.86975283976886
 20
50.95505457342848
 30
0.0
 11
96.33439804599008
 21
51.57767224915197
 31
0.0
  0
ARC
  5
8A
  8
____
 10
-16.50028990629895
 20
40.00000000000031
 30
0.0
 40
110.67
 50
333.1411808504839
 51
26.85881914951608
  0
LINE
  5
8B
  8
____
 10
94.16971009370104
 20
40.00000000000037
 30
0.0
 11
100.0
 21
40.00000000000037
 31
0.0
  0
LINE
  5
8C
  8
____
 10
96.91971009370104
 20
38.73000000030723
 30
0.0
 11
96.91971009370104
 21
41.27000000030722
 31
0.0
  0
LINE
  5
8D
  8
____
 10
96.91971009370104
 20
41.27000000030722
 30
0.0
 11
91.41971009370104
 21
41.27000000030722
 31
0.0
  0
LINE
  5
8E
  8
____
 10
91.41971009370104
 20
41.27000000030722
 30
0.0
 11
91.41971009370104
 21
38.73000000030723
 31
0.0
  0
LINE
  5
8F
  8
____
 10
91.41971009370104
 20
38.73000000030723
 30
0.0
 11
96.91971009370104
 21
38.73000000030723
 31
0.0
  0
CIRCLE
  5
90
  8
____
 10
5.999710093701069
 20
51.33630482997177
 30
0.0
 40
1.5
  0
CIRCLE
  5
91
  8
____
 10
5.999710093701069
 20
70.33630482997177
 30
0.0
 40
1.5
  0
LINE
  5
93
  8
LAYOUT
 10
-30.00028990629895
 20
74.33630482997171
 30
0.0
 11
36.99971009370107
 21
74.33630482997171
 31
0.0
  0
LINE
  5
94
  8
LAYOUT
 10
36.99971009370107
 20
74.33630482997171
 30
0.0
 11
36.99971009370107
 21
47.33630482997174
 31
0.0
  0
LINE
  5
95
  8
LAYOUT
 10
36.99971009370107
 20
47.33630482997174
 30
0.0
 11
-30.00028990629895
 21
47.33630482997174
 31
0.0
  0
LINE
  5
96
  8
LAYOUT
 10
-30.00028990629895
 20
47.33630482997174
 30
0.0
 11
-30.00028990629895
 21
74.33630482997171
 31
0.0
  0
LINE
  5
99
  8
CENTER_LINE
 10
-16.50028990629895
 20
82.33630482997177
 30
0.0
 11
-16.50028990629895
 21
108.3363048299717
 31
0.0
  0
ARC
  5
9A
  8
LAYOUT
 10
-46.00028990629895
 20
85.33630482997177
 30
0.0
 40
3.0
 50
180.0
 51
270.0
  0
LINE
  5
9B
  8
LAYOUT
 10
-49.00028990629895
 20
85.33630482997177
 30
0.0
 11
-49.00028990629895
 21
105.3363048299717
 31
0.0
  0
ARC
  5
9C
  8
LAYOUT
 10
-46.00028990629895
 20
105.3363048299717
 30
0.0
 40
3.0
 50
90.0
 51
180.0
  0
LINE
  5
9D
  8
LAYOUT
 10
-46.00028990629895
 20
108.3363048299717
 30
0.0
 11
12.99971009370105
 21
108.3363048299717
 31
0.0
  0
ARC
  5
9E
  8
LAYOUT
 10
12.99971009370105
 20
105.3363048299717
 30
0.0
 40
3.0
 50
0.0
 51
90.0
  0
LINE
  5
9F
  8
LAYOUT
 10
15.99971009370107
 20
105.3363048299717
 30
0.0
 11
15.99971009370107
 21
85.33630482997177
 31
0.0
  0
ARC
  5
A0
  8
LAYOUT
 10
12.99971009370105
 20
85.33630482997177
 30
0.0
 40
3.0
 50
270.0
 51
0.0
  0
LINE
  5
A1
  8
LAYOUT
 10
12.99971009370105
 20
82.33630482997171
 30
0.0
 11
-46.00028990629895
 21
82.33630482997177
 31
0.0
  0
LINE
  5
A2
  8
____
 10
35.55633442072701
 20
0.0000000000003126
 30
0.0
 11
34.11295874775295
 21
2.500000000000313
 31
0.0
  0
LINE
  5
A3
  8
____
 10
34.11295874775295
 20
2.500000000000313
 30
0.0
 11
35.55633442072701
 21
5.000000000000313
 31
0.0
  0
LINE
  5
A4
  8
____
 10
35.55633442072701
 20
5.000000000000313
 30
0.0
 11
38.44308576667514
 21
5.000000000000313
 31
0.0
  0
LINE
  5
A5
  8
____
 10
38.44308576667514
 20
5.000000000000313
 30
0.0
 11
39.8864614396492
 21
2.500000000000313
 31
0.0
  0
LINE
  5
A6
  8
____
 10
39.8864614396492
 20
2.500000000000313
 30
0.0
 11
38.44308576667514
 21
0.0000000000003126
 31
0.0
  0
LINE
  5
A7
  8
____
 10
38.44308576667514
 20
0.0000000000003126
 30
0.0
 11
35.55633442072701
 21
0.0000000000003126
 31
0.0
  0
LINE
  5
A8
  8
____
 10
35.55633442072701
 20
80.00000000000031
 30
0.0
 11
34.11295874775295
 21
77.50000000000031
 31
0.0
  0
LINE
  5
A9
  8
____
 10
34.11295874775295
 20
77.50000000000031
 30
0.0
 11
35.55633442072701
 21
75.00000000000031
 31
0.0
  0
LINE
  5
AA
  8
____
 10
35.55633442072701
 20
75.00000000000031
 30
0.0
 11
38.44308576667514
 21
75.00000000000031
 31
0.0
  0
LINE
  5
AB
  8
____
 10
38.44308576667514
 20
75.00000000000031
 30
0.0
 11
39.8864614396492
 21
77.50000000000031
 31
0.0
  0
LINE
  5
AC
  8
____
 10
39.8864614396492
 20
77.50000000000031
 30
0.0
 11
38.44308576667514
 21
80.00000000000031
 31
0.0
  0
LINE
  5
AD
  8
____
 10
38.44308576667514
 20
80.00000000000031
 30
0.0
 11
35.55633442072701
 21
80.00000000000031
 31
0.0
  0
LINE
  5
AE
  8
____
 10
7.443085766675125
 20
80.00000000000031
 30
0.0
 11
8.886461439649189
 21
77.50000000000031
 31
0.0
  0
LINE
  5
AF
  8
____
 10
8.886461439649189
 20
77.50000000000031
 30
0.0
 11
7.443085766675125
 21
75.00000000000031
 31
0.0
  0
LINE
  5
B0
  8
____
 10
7.443085766675125
 20
75.00000000000031
 30
0.0
 11
4.556334420726998
 21
75.00000000000031
 31
0.0
  0
LINE
  5
B1
  8
____
 10
4.556334420726998
 20
75.00000000000031
 30
0.0
 11
3.112958747752934
 21
77.50000000000031
 31
0.0
  0
LINE
  5
B2
  8
____
 10
3.112958747752934
 20
77.50000000000031
 30
0.0
 11
4.556334420726998
 21
80.00000000000031
 31
0.0
  0
LINE
  5
B3
  8
____
 10
4.556334420726998
 20
80.00000000000031
 30
0.0
 11
7.443085766675125
 21
80.00000000000031
 31
0.0
  0
LINE
  5
B4
  8
____
 10
7.443085766675125
 20
0.0000000000003126
 30
0.0
 11
8.886461439649189
 21
2.500000000000313
 31
0.0
  0
LINE
  5
B5
  8
____
 10
8.886461439649189
 20
2.500000000000313
 30
0.0
 11
7.443085766675125
 21
5.000000000000313
 31
0.0
  0
LINE
  5
B6
  8
____
 10
7.443085766675125
 20
5.000000000000313
 30
0.0
 11
4.556334420726998
 21
5.000000000000313
 31
0.0
  0
LINE
  5
B7
  8
____
 10
4.556334420726998
 20
5.000000000000313
 30
0.0
 11
3.112958747752934
 21
2.500000000000313
 31
0.0
  0
LINE
  5
B8
  8
____
 10
3.112958747752934
 20
2.500000000000313
 30
0.0
 11
4.556334420726998
 21
0.0000000000003126
 31
0.0
  0
LINE
  5
B9
  8
____
 10
4.556334420726998
 20
0.0000000000003126
 30
0.0
 11
7.443085766675125
 21
0.0000000000003126
 31
0.0
  0
LINE
  5
BA
  8
____
 10
36.99971009370108
 20
2.500000000000313
 30
0.0
 11
36.99971009370108
 21
77.50000000000031
 31
0.0
  0
LINE
  5
BB
  8
____
 10
36.99971009370108
 20
77.50000000000031
 30
0.0
 11
5.999710093701061
 21
77.50000000000031
 31
0.0
  0
LINE
  5
BC
  8
____
 10
5.999710093701061
 20
77.50000000000031
 30
0.0
 11
5.999710093701061
 21
2.500000000000313
 31
0.0
  0
LINE
  5
BD
  8
____
 10
5.999710093701061
 20
2.500000000000313
 30
0.0
 11
36.99971009370108
 21
2.500000000000313
 31
0.0
  0
CIRCLE
  5
BE
  8
LAYOUT
 10
36.99971009370108
 20
2.500000000000313
 30
0.0
 40
1.5
  0
CIRCLE
  5
BF
  8
LAYOUT
 10
36.99971009370108
 20
77.50000000000031
 30
0.0
 40
1.5
  0
CIRCLE
  5
C0
  8
LAYOUT
 10
5.999710093701061
 20
77.50000000000031
 30
0.0
 40
1.5
  0
CIRCLE
  5
C1
  8
LAYOUT
 10
5.999710093701061
 20
2.500000000000313
 30
0.0
 40
1.5
  0
ARC
  5
C2
  8
LAYOUT
 10
-46.00028990629895
 20
-5.336304829971141
 30
0.0
 40
3.0
 50
90.0
 51
180.0
  0
LINE
  5
C3
  8
LAYOUT
 10
-49.00028990629895
 20
-5.336304829971141
 30
0.0
 11
-49.00028990629895
 21
-25.33630482997108
 31
0.0
  0
ARC
  5
C4
  8
LAYOUT
 10
-46.00028990629895
 20
-25.33630482997108
 30
0.0
 40
3.0
 50
180.0
 51
270.0
  0
LINE
  5
C5
  8
LAYOUT
 10
-46.00028990629895
 20
-28.33630482997108
 30
0.0
 11
12.99971009370105
 21
-28.33630482997108
 31
0.0
  0
ARC
  5
C6
  8
LAYOUT
 10
12.99971009370105
 20
-25.33630482997108
 30
0.0
 40
3.0
 50
270.0
 51
0.0
  0
LINE
  5
C7
  8
LAYOUT
 10
15.99971009370107
 20
-25.33630482997108
 30
0.0
 11
15.99971009370107
 21
-5.336304829971141
 31
0.0
  0
ARC
  5
C8
  8
LAYOUT
 10
12.99971009370105
 20
-5.336304829971141
 30
0.0
 40
3.0
 50
0.0
 51
90.0
  0
LINE
  5
C9
  8
LAYOUT
 10
12.99971009370105
 20
-2.336304829971084
 30
0.0
 11
-46.00028990629895
 21
-2.336304829971141
 31
0.0
  0
LINE
  5
CA
  8
CENTER_LINE
 10
-16.50028990629895
 20
-2.336304829971141
 30
0.0
 11
-16.50028990629895
 21
-28.33630482997108
 31
0.0
  0
LINE
  5
CB
  8
LAYOUT
 10
-30.00028990629895
 20
5.663695170028916
 30
0.0
 11
36.99971009370107
 21
5.663695170028916
 31
0.0
  0
LINE
  5
CC
  8
LAYOUT
 10
36.99971009370107
 20
5.663695170028916
 30
0.0
 11
36.99971009370107
 21
32.66369517002889
 31
0.0
  0
LINE
  5
CD
  8
LAYOUT
 10
36.99971009370107
 20
32.66369517002889
 30
0.0
 11
-30.00028990629895
 21
32.66369517002889
 31
0.0
  0
LINE
  5
CE
  8
LAYOUT
 10
-30.00028990629895
 20
32.66369517002889
 30
0.0
 11
-30.00028990629895
 21
5.663695170028916
 31
0.0
  0
CIRCLE
  5
CF
  8
____
 10
5.999710093701069
 20
9.66369517002886
 30
0.0
 40
1.5
  0
CIRCLE
  5
D0
  8
____
 10
5.999710093701069
 20
28.66369517002886
 30
0.0
 40
1.5
  0
LINE
  5
D1
  8
____
 10
1.709860010477996
 20
9.66369517002886
 30
0.0
 11
10.28956017692414
 21
9.66369517002886
 31
0.0
  0
LINE
  5
D2
  8
____
 10
1.709860010477996
 20
28.66369517002886
 30
0.0
 11
10.28956017692414
 21
28.66369517002886
 31
0.0
  0
LINE
  5
D3
  8
____
 10
1.709860010477996
 20
51.33630482997177
 30
0.0
 11
10.28956017692414
 21
51.33630482997177
 31
0.0
  0
LINE
  5
D4
  8
____
 10
1.709860010477996
 20
70.33630482997177
 30
0.0
 11
10.28956017692414
 21
70.33630482997177
 31
0.0
  0
CIRCLE
  5
D5
  8
____
 10
94.99999999999997
 20
-5.000671036117354
 30
0.0
 40
1.500000150096483
  0
CIRCLE
  5
D6
  8
____
 10
95.0
 20
85.00000000000034
 30
0.0
 40
1.5
  0
LINE
  5
D7
  8
____
 10
93.5
 20
85.00000000000034
 30
0.0
 11
96.5
 21
85.00000000000034
 31
0.0
  0
LINE
  5
D8
  8
____
 10
94.99999999999999
 20
-3.499999999999719
 30
0.0
 11
94.99999999999999
 21
-6.499999999999719
 31
0.0
  0
LINE
  5
D9
  8
____
 10
93.49999999999999
 20
-4.999999999999719
 30
0.0
 11
96.49999999999999
 21
-4.999999999999719
 31
0.0
  0
LINE
  5
DA
  8
____
 10
95.0
 20
86.50000000000034
 30
0.0
 11
95.0
 21
83.50000000000034
 31
0.0
  0
LINE
  5
DB
  8
____
 10
50.0
 20
86.50000000000034
 30
0.0
 11
50.0
 21
83.50000000000034
 31
0.0
  0
LINE
  5
DC
  8
____
 10
48.49999999999999
 20
-4.999999999999719
 30
0.0
 11
51.49999999999999
 21
-4.999999999999719
 31
0.0
  0
LINE
  5
DD
  8
____
 10
49.99999999999999
 20
-3.499999999999719
 30
0.0
 11
49.99999999999999
 21
-6.499999999999719
 31
0.0
  0
LINE
  5
DE
  8
____
 10
48.5
 20
85.00000000000034
 30
0.0
 11
51.5
 21
85.00000000000034
 31
0.0
  0
CIRCLE
  5
DF
  8
____
 10
50.0
 20
85.00000000000034
 30
0.0
 40
1.5
  0
CIRCLE
  5
E0
  8
____
 10
49.99999999999997
 20
-5.000671036117339
 30
0.0
 40
1.500000150096469
  0
ARC
  5
E1
  8
LAYOUT
 10
74.06971009370105
 20
60.00000000000031
 30
0.0
 40
2.5
 50
42.45415019799263
 51
137.5458497699047
  0
LINE
  5
E2
  8
LAYOUT
 10
72.2251657740361
 20
61.68750000082753
 30
0.0
 11
62.26462644911439
 21
50.80000000668144
 31
0.0
  0
ARC
  5
E3
  8
LAYOUT
 10
74.06971009370105
 20
40.00000000000031
 30
0.0
 40
16.0
 50
137.5458497631723
 51
222.4541503965697
  0
LINE
  5
E4
  8
LAYOUT
 10
62.26462647922506
 20
29.19999996040633
 30
0.0
 11
72.22516577978345
 21
18.31249999403062
 31
0.0
  0
ARC
  5
E5
  8
LAYOUT
 10
74.06971009474373
 20
20.00000000000031
 30
0.0
 40
2.5
 50
222.4541503898335
 51
317.5458528924578
  0
LINE
  5
E6
  8
LAYOUT
 10
75.91425450637547
 20
18.31250009969864
 30
0.0
 11
85.87479374496303
 21
29.20000000061572
 31
0.0
  0
ARC
  5
E7
  8
LAYOUT
 10
74.06971009370105
 20
40.00000000000031
 30
0.0
 40
16.0
 50
317.545849798586
 51
42.45415020472807
  0
LINE
  5
E8
  8
LAYOUT
 10
85.87479374433835
 20
50.80000000006771
 30
0.0
 11
75.91425441431147
 21
61.68749999979403
 31
0.0
  0
CIRCLE
  5
E9
  8
____
 10
74.06971009370105
 20
60.00000000000031
 30
0.0
 40
1.5
  0
CIRCLE
  5
EA
  8
____
 10
74.06971009474373
 20
20.00000000000031
 30
0.0
 40
1.5
  0
CIRCLE
  5
EB
  8
____
 10
74.06971009370105
 20
40.00000000000031
 30
0.0
 40
14.0
  0
LINE
  5
EC
  8
____
 10
74.06971009370105
 20
61.30043722571506
 30
0.0
 11
74.06971009370105
 21
58.69956277428557
 31
0.0
  0
LINE
  5
ED
  8
____
 10
76.42283561637414
 20
60.00000000000031
 30
0.0
 11
71.71658457102795
 21
60.00000000000031
 31
0.0
  0
LINE
  5
EE
  8
____
 10
76.42283561637414
 20
20.00000000000031
 30
0.0
 11
71.71658457102795
 21
20.00000000000031
 31
0.0
  0
LINE
  5
EF
  8
____
 10
74.06971009370105
 20
18.69956277428557
 30
0.0
 11
74.06971009370105
 21
21.30043722571506
 31
0.0
  0
LINE
  5
F0
  8
____
 10
100.0
 20
87.99999999999945
 30
0.0
 11
100.0
 21
-8.000000000000561
 31
0.0
  0
ARC
  5
F1
  8
____
 10
97.99999999999999
 20
-7.999999999999687
 30
0.0
 40
2.0
 50
270.0000000000004
 51
359.999999999975
  0
LINE
  5
F2
  8
____
 10
98.0
 20
-9.999999999999687
 30
0.0
 11
46.49183238847549
 21
-10.0
 31
0.0
  0
ARC
  5
F3
  8
____
 10
46.49183238847617
 20
-8.0
 30
0.0
 40
2.0
 50
225.0000000000001
 51
269.9999999999804
  0
LINE
  5
F4
  8
____
 10
45.07761882610308
 20
-9.414213562373098
 30
0.0
 11
37.58549653132765
 21
-1.922091267597679
 31
0.0
  0
ARC
  5
F5
  8
____
 10
36.17128296895456
 20
-3.336304829970778
 30
0.0
 40
2.0
 50
45.00000000000013
 51
90.00000000000325
  0
LINE
  5
F6
  8
____
 10
36.17128296895444
 20
-1.336304829971098
 30
0.0
 11
2.0
 21
-1.336304829971098
 31
0.0
  0
ARC
  5
F7
  8
____
 10
2.0
 20
0.6636951700289018
 30
0.0
 40
2.0
 50
180.0000000000004
 51
270.0
  0
LINE
  5
F8
  8
____
 10
0.0
 20
0.6636951700288876
 30
0.0
 11
0.0000000000000284
 21
79.33630482997178
 31
0.0
  0
ARC
  5
F9
  8
____
 10
2.000000000000028
 20
79.33630482997175
 30
0.0
 40
2.0
 50
90.00000000000102
 51
179.9999999999992
  0
LINE
  5
FA
  8
____
 10
1.999999999999993
 20
81.33630482997175
 30
0.0
 11
36.17128296895525
 21
81.33630482997172
 31
0.0
  0
ARC
  5
FB
  8
____
 10
36.17128296895525
 20
83.33630482997172
 30
0.0
 40
2.0
 50
270.0000000000002
 51
314.9999999999794
  0
LINE
  5
FC
  8
____
 10
37.58549653132783
 20
81.92209126759812
 30
0.0
 11
45.07761882610308
 21
89.41421356237372
 31
0.0
  0
ARC
  5
FD
  8
____
 10
46.49183238847617
 20
88.00000000000063
 30
0.0
 40
2.0
 50
89.99999999999675
 51
135.0
  0
LINE
  5
FE
  8
____
 10
46.49183238847628
 20
90.00000000000063
 30
0.0
 11
98.00000000000003
 21
90.00000000000031
 31
0.0
  0
ARC
  5
FF
  8
____
 10
98.00000000000003
 20
88.00000000000033
 30
0.0
 40
1.999999999999986
 50
359.9999999999748
 51
90.0
  0
LINE
  5
100
  8
____
 10
0.1133339666806989
 20
0.000000000000334
 30
0.0
 11
99.99999999999997
 21
0.000000000000334
 31
0.0
  0
LINE
  5
101
  8
____
 10
0.1133339666807558
 20
80.00000000000034
 30
0.0
 11
100.0
 21
80.00000000000034
 31
0.0
  0
ENDSEC
  0
EOF
