%
M48
M72
T01C0.02400
T02C0.03150
T03C0.03200
T04C0.04000
T05C0.04400
T06C0.04724
T07C0.05200
T08C0.11811
%
T01
X116957Y139595
X103178Y153375
X100225Y176997
X112036Y176997
X117942Y177981
X135658Y173060
X137627Y177981
X166761Y178178
X182902Y160265
X211446Y186839
X226209Y175028
X234083Y152391
X222272Y206524
X222272Y212430
X191761Y247863
X197666Y253769
X191761Y257706
X193729Y262627
X213414Y275422
X211446Y289202
X194713Y294123
X191761Y302981
X195698Y309871
X203572Y306918
X232115Y319713
X255737Y313808
X263611Y316761
X169123Y336446
X156328Y295107
X162233Y262627
X140580Y265580
X142548Y240973
X158296Y236052
X171879Y199438
X85461Y196682
X77587Y196682
X34280Y237036
X18532Y241957
X14595Y247863
X27391Y255737
X55934Y274438
X64792Y279359
X59871Y285265
X72666Y293139
X246288Y73847
T02
X336429Y51842
X339767Y61269
X355282Y45166
X358620Y54592
X369990Y93517
X372239Y103261
X352752Y107760
X350502Y98016
X359223Y145492
X360355Y155427
X380227Y153163
X379095Y143228
X382513Y193650
X382513Y203650
X362513Y203650
X362513Y193650
X360355Y241869
X359223Y251805
X379095Y254069
X380227Y244133
X352760Y289545
X350510Y299288
X369998Y303788
X372247Y294044
X339771Y336028
X336433Y345455
X355286Y352131
X358624Y342704
X179359Y308887
X169359Y308887
X159359Y308887
X149359Y308887
X139359Y308887
X129359Y308887
X119359Y308887
X109359Y308887
X99359Y308887
X89359Y308887
X79359Y308887
X69359Y308887
X59359Y308887
X49359Y308887
X39359Y308887
X39359Y248887
X49359Y248887
X59359Y248887
X69359Y248887
X79359Y248887
X89359Y248887
X99359Y248887
X109359Y248887
X119359Y248887
X129359Y248887
X139359Y248887
X149359Y248887
X159359Y248887
X169359Y248887
X179359Y248887
T03
X177981Y230973
X184989Y228611
X194989Y228611
X204989Y228611
X217509Y227351
X217391Y216741
X205580Y189871
X195580Y189871
X185580Y189871
X182942Y174891
X152942Y174891
X106800Y126170
X96800Y121170
X96800Y113670
X99300Y106170
X96800Y96170
X106800Y96170
X94300Y131170
X66800Y121170
X66800Y113670
X69300Y106170
X66800Y96170
X64300Y131170
X147981Y230973
X217509Y257351
X217391Y186741
X261800Y65422
X271800Y65422
X281800Y65422
X281800Y45422
X271800Y45422
X261800Y45422
X244280Y55816
X234280Y55816
X351800Y321170
X371800Y321170
T04
X306800Y321170
X306800Y311170
X296800Y311170
X286800Y311170
X286800Y321170
X296800Y321170
X296800Y336170
X286800Y336170
X276800Y336170
X276800Y321170
X276800Y311170
X306800Y336170
X301800Y101170
X291800Y101170
X291800Y91170
X291800Y81170
X301800Y81170
X301800Y91170
X281800Y91170
X281800Y81170
X271800Y81170
X271800Y91170
X261800Y91170
X261800Y81170
X261800Y101170
X271800Y101170
X281800Y101170
X43065Y98653
X42257Y112349
X42257Y130149
X42513Y143845
X42513Y161645
X16913Y161645
X16913Y143845
X16657Y130149
X16657Y112349
X17465Y98653
X17465Y80853
X43065Y80853
T05
X121800Y116170
X121800Y126170
X161800Y126170
X161800Y116170
X181800Y116170
X181800Y126170
X221800Y126170
X221800Y116170
X206800Y321170
X196800Y321170
X196800Y331170
X206800Y331170
X246800Y331170
X246800Y321170
X156800Y321170
X156800Y331170
T06
X161013Y212154
X151013Y212154
X141013Y212154
X131013Y212154
X121013Y212154
X111013Y212154
X101013Y212154
X106013Y192154
X96013Y192154
X116013Y192154
X126013Y192154
X136013Y192154
X146013Y192154
X156013Y192154
X166013Y192154
T07
X145361Y54320
X125561Y54320
X301034Y54320
X320834Y54320
X137094Y342568
X117294Y342568
T08
X29359Y60894
X89753Y51013
X198650Y21485
X211800Y51013
X293414Y119910
X375816Y21485
X293414Y277391
X211800Y346288
X198650Y375816
X89753Y346288
X29359Y336406
X29359Y218375
X29359Y178926
X375816Y375816
M30
