G75*
%MOIN*%
%OFA0B0*%
%FSLAX25Y25*%
%IPPOS*%
%LPD*%
%AMOC8*
5,1,8,0,0,1.08239X$1,22.5*
%
%ADD10C,0.12611*%
%ADD11OC8,0.07100*%
%ADD12C,0.07100*%
%ADD13C,0.07400*%
%ADD14C,0.06000*%
%ADD15C,0.07887*%
%ADD16C,0.06800*%
%ADD17C,0.08600*%
%ADD18C,0.01190*%
%ADD19OC8,0.05950*%
%ADD20OC8,0.06000*%
%ADD21C,0.06800*%
%ADD22C,0.07800*%
%ADD23R,0.07800X0.07800*%
%ADD24C,0.04800*%
D10*
X0028561Y0060096D03*
X0088955Y0050215D03*
X0197852Y0020687D03*
X0211002Y0050215D03*
X0292616Y0119112D03*
X0375018Y0020687D03*
X0292616Y0276593D03*
X0211002Y0345490D03*
X0197852Y0375018D03*
X0088955Y0345490D03*
X0028561Y0335608D03*
X0028561Y0217577D03*
X0028561Y0178128D03*
X0375018Y0375018D03*
D11*
X0233482Y0055018D03*
D12*
X0243482Y0055018D03*
D13*
X0221002Y0115372D03*
X0221002Y0125372D03*
X0181002Y0125372D03*
X0181002Y0115372D03*
X0161002Y0115372D03*
X0161002Y0125372D03*
X0121002Y0125372D03*
X0121002Y0115372D03*
X0156002Y0320372D03*
X0156002Y0330372D03*
X0196002Y0330372D03*
X0196002Y0320372D03*
X0206002Y0320372D03*
X0206002Y0330372D03*
X0246002Y0330372D03*
X0246002Y0320372D03*
D14*
X0204191Y0230413D02*
X0204191Y0225213D01*
X0194191Y0225213D02*
X0194191Y0230413D01*
X0184191Y0230413D02*
X0184191Y0225213D01*
X0184781Y0191673D02*
X0184781Y0186473D01*
X0194781Y0186473D02*
X0194781Y0191673D01*
X0204781Y0191673D02*
X0204781Y0186473D01*
X0098602Y0120372D02*
X0093402Y0120372D01*
X0093402Y0112872D02*
X0098602Y0112872D01*
X0098602Y0095372D02*
X0093402Y0095372D01*
X0068602Y0095372D02*
X0063402Y0095372D01*
X0063402Y0112872D02*
X0068602Y0112872D01*
X0068602Y0120372D02*
X0063402Y0120372D01*
X0261002Y0067224D02*
X0261002Y0062024D01*
X0271002Y0062024D02*
X0271002Y0067224D01*
X0281002Y0067224D02*
X0281002Y0062024D01*
X0281002Y0047224D02*
X0281002Y0042024D01*
X0271002Y0042024D02*
X0271002Y0047224D01*
X0261002Y0047224D02*
X0261002Y0042024D01*
D15*
X0165215Y0187813D02*
X0165215Y0194900D01*
X0155215Y0194900D02*
X0155215Y0187813D01*
X0145215Y0187813D02*
X0145215Y0194900D01*
X0135215Y0194900D02*
X0135215Y0187813D01*
X0125215Y0187813D02*
X0125215Y0194900D01*
X0115215Y0194900D02*
X0115215Y0187813D01*
X0105215Y0187813D02*
X0105215Y0194900D01*
X0095215Y0194900D02*
X0095215Y0187813D01*
X0100215Y0207813D02*
X0100215Y0214900D01*
X0110215Y0214900D02*
X0110215Y0207813D01*
X0120215Y0207813D02*
X0120215Y0214900D01*
X0130215Y0214900D02*
X0130215Y0207813D01*
X0140215Y0207813D02*
X0140215Y0214900D01*
X0150215Y0214900D02*
X0150215Y0207813D01*
X0160215Y0207813D02*
X0160215Y0214900D01*
D16*
X0261002Y0100372D03*
X0261002Y0090372D03*
X0261002Y0080372D03*
X0271002Y0080372D03*
X0271002Y0090372D03*
X0281002Y0090372D03*
X0281002Y0080372D03*
X0291002Y0080372D03*
X0291002Y0090372D03*
X0301002Y0090372D03*
X0301002Y0080372D03*
X0301002Y0100372D03*
X0291002Y0100372D03*
X0281002Y0100372D03*
X0271002Y0100372D03*
D17*
X0300236Y0057422D02*
X0300236Y0049622D01*
X0320036Y0049622D02*
X0320036Y0057422D01*
X0144563Y0057422D02*
X0144563Y0049622D01*
X0124763Y0049622D02*
X0124763Y0057422D01*
X0116496Y0337870D02*
X0116496Y0345670D01*
X0136296Y0345670D02*
X0136296Y0337870D01*
D18*
X0335174Y0346634D02*
X0335769Y0347229D01*
X0337549Y0346379D01*
X0338207Y0344523D01*
X0337357Y0342743D01*
X0335501Y0342085D01*
X0333721Y0342935D01*
X0333063Y0344791D01*
X0333913Y0346571D01*
X0335769Y0347229D01*
X0335719Y0346264D01*
X0336831Y0345734D01*
X0337242Y0344573D01*
X0336712Y0343461D01*
X0335551Y0343050D01*
X0334439Y0343580D01*
X0334028Y0344741D01*
X0334558Y0345853D01*
X0335719Y0346264D01*
X0335668Y0345299D01*
X0336113Y0345087D01*
X0336277Y0344624D01*
X0336065Y0344179D01*
X0335602Y0344015D01*
X0335157Y0344227D01*
X0334993Y0344690D01*
X0335205Y0345135D01*
X0335668Y0345299D01*
X0338512Y0337207D02*
X0339107Y0337802D01*
X0340887Y0336952D01*
X0341545Y0335096D01*
X0340695Y0333316D01*
X0338839Y0332658D01*
X0337059Y0333508D01*
X0336401Y0335364D01*
X0337251Y0337144D01*
X0339107Y0337802D01*
X0339057Y0336837D01*
X0340169Y0336307D01*
X0340580Y0335146D01*
X0340050Y0334034D01*
X0338889Y0333623D01*
X0337777Y0334153D01*
X0337366Y0335314D01*
X0337896Y0336426D01*
X0339057Y0336837D01*
X0339006Y0335872D01*
X0339451Y0335660D01*
X0339615Y0335197D01*
X0339403Y0334752D01*
X0338940Y0334588D01*
X0338495Y0334800D01*
X0338331Y0335263D01*
X0338543Y0335708D01*
X0339006Y0335872D01*
X0354027Y0353310D02*
X0354622Y0353905D01*
X0356402Y0353055D01*
X0357060Y0351199D01*
X0356210Y0349419D01*
X0354354Y0348761D01*
X0352574Y0349611D01*
X0351916Y0351467D01*
X0352766Y0353247D01*
X0354622Y0353905D01*
X0354572Y0352940D01*
X0355684Y0352410D01*
X0356095Y0351249D01*
X0355565Y0350137D01*
X0354404Y0349726D01*
X0353292Y0350256D01*
X0352881Y0351417D01*
X0353411Y0352529D01*
X0354572Y0352940D01*
X0354521Y0351975D01*
X0354966Y0351763D01*
X0355130Y0351300D01*
X0354918Y0350855D01*
X0354455Y0350691D01*
X0354010Y0350903D01*
X0353846Y0351366D01*
X0354058Y0351811D01*
X0354521Y0351975D01*
X0357365Y0343883D02*
X0357960Y0344478D01*
X0359740Y0343628D01*
X0360398Y0341772D01*
X0359548Y0339992D01*
X0357692Y0339334D01*
X0355912Y0340184D01*
X0355254Y0342040D01*
X0356104Y0343820D01*
X0357960Y0344478D01*
X0357910Y0343513D01*
X0359022Y0342983D01*
X0359433Y0341822D01*
X0358903Y0340710D01*
X0357742Y0340299D01*
X0356630Y0340829D01*
X0356219Y0341990D01*
X0356749Y0343102D01*
X0357910Y0343513D01*
X0357859Y0342548D01*
X0358304Y0342336D01*
X0358468Y0341873D01*
X0358256Y0341428D01*
X0357793Y0341264D01*
X0357348Y0341476D01*
X0357184Y0341939D01*
X0357396Y0342384D01*
X0357859Y0342548D01*
X0369029Y0304934D02*
X0369624Y0305529D01*
X0371297Y0304484D01*
X0371740Y0302565D01*
X0370695Y0300892D01*
X0368776Y0300449D01*
X0367103Y0301494D01*
X0366660Y0303413D01*
X0367705Y0305086D01*
X0369624Y0305529D01*
X0369465Y0304576D01*
X0370510Y0303923D01*
X0370787Y0302724D01*
X0370134Y0301679D01*
X0368935Y0301402D01*
X0367890Y0302055D01*
X0367613Y0303254D01*
X0368266Y0304299D01*
X0369465Y0304576D01*
X0369305Y0303624D01*
X0369724Y0303362D01*
X0369835Y0302884D01*
X0369573Y0302465D01*
X0369095Y0302354D01*
X0368676Y0302616D01*
X0368565Y0303094D01*
X0368827Y0303513D01*
X0369305Y0303624D01*
X0371278Y0295191D02*
X0371873Y0295786D01*
X0373546Y0294741D01*
X0373989Y0292822D01*
X0372944Y0291149D01*
X0371025Y0290706D01*
X0369352Y0291751D01*
X0368909Y0293670D01*
X0369954Y0295343D01*
X0371873Y0295786D01*
X0371714Y0294833D01*
X0372759Y0294180D01*
X0373036Y0292981D01*
X0372383Y0291936D01*
X0371184Y0291659D01*
X0370139Y0292312D01*
X0369862Y0293511D01*
X0370515Y0294556D01*
X0371714Y0294833D01*
X0371554Y0293881D01*
X0371973Y0293619D01*
X0372084Y0293141D01*
X0371822Y0292722D01*
X0371344Y0292611D01*
X0370925Y0292873D01*
X0370814Y0293351D01*
X0371076Y0293770D01*
X0371554Y0293881D01*
X0351791Y0290692D02*
X0352386Y0291287D01*
X0354059Y0290242D01*
X0354502Y0288323D01*
X0353457Y0286650D01*
X0351538Y0286207D01*
X0349865Y0287252D01*
X0349422Y0289171D01*
X0350467Y0290844D01*
X0352386Y0291287D01*
X0352227Y0290334D01*
X0353272Y0289681D01*
X0353549Y0288482D01*
X0352896Y0287437D01*
X0351697Y0287160D01*
X0350652Y0287813D01*
X0350375Y0289012D01*
X0351028Y0290057D01*
X0352227Y0290334D01*
X0352067Y0289382D01*
X0352486Y0289120D01*
X0352597Y0288642D01*
X0352335Y0288223D01*
X0351857Y0288112D01*
X0351438Y0288374D01*
X0351327Y0288852D01*
X0351589Y0289271D01*
X0352067Y0289382D01*
X0349541Y0300435D02*
X0350136Y0301030D01*
X0351809Y0299985D01*
X0352252Y0298066D01*
X0351207Y0296393D01*
X0349288Y0295950D01*
X0347615Y0296995D01*
X0347172Y0298914D01*
X0348217Y0300587D01*
X0350136Y0301030D01*
X0349977Y0300077D01*
X0351022Y0299424D01*
X0351299Y0298225D01*
X0350646Y0297180D01*
X0349447Y0296903D01*
X0348402Y0297556D01*
X0348125Y0298755D01*
X0348778Y0299800D01*
X0349977Y0300077D01*
X0349817Y0299125D01*
X0350236Y0298863D01*
X0350347Y0298385D01*
X0350085Y0297966D01*
X0349607Y0297855D01*
X0349188Y0298117D01*
X0349077Y0298595D01*
X0349339Y0299014D01*
X0349817Y0299125D01*
X0358539Y0252888D02*
X0359134Y0253483D01*
X0360678Y0252255D01*
X0360901Y0250298D01*
X0359673Y0248754D01*
X0357716Y0248531D01*
X0356172Y0249759D01*
X0355949Y0251716D01*
X0357177Y0253260D01*
X0359134Y0253483D01*
X0358868Y0252554D01*
X0359832Y0251787D01*
X0359972Y0250564D01*
X0359205Y0249600D01*
X0357982Y0249460D01*
X0357018Y0250227D01*
X0356878Y0251450D01*
X0357645Y0252414D01*
X0358868Y0252554D01*
X0358602Y0251626D01*
X0358988Y0251318D01*
X0359044Y0250830D01*
X0358736Y0250444D01*
X0358248Y0250388D01*
X0357862Y0250696D01*
X0357806Y0251184D01*
X0358114Y0251570D01*
X0358602Y0251626D01*
X0359671Y0242952D02*
X0360266Y0243547D01*
X0361810Y0242319D01*
X0362033Y0240362D01*
X0360805Y0238818D01*
X0358848Y0238595D01*
X0357304Y0239823D01*
X0357081Y0241780D01*
X0358309Y0243324D01*
X0360266Y0243547D01*
X0360000Y0242618D01*
X0360964Y0241851D01*
X0361104Y0240628D01*
X0360337Y0239664D01*
X0359114Y0239524D01*
X0358150Y0240291D01*
X0358010Y0241514D01*
X0358777Y0242478D01*
X0360000Y0242618D01*
X0359734Y0241690D01*
X0360120Y0241382D01*
X0360176Y0240894D01*
X0359868Y0240508D01*
X0359380Y0240452D01*
X0358994Y0240760D01*
X0358938Y0241248D01*
X0359246Y0241634D01*
X0359734Y0241690D01*
X0379543Y0245216D02*
X0380138Y0245811D01*
X0381682Y0244583D01*
X0381905Y0242626D01*
X0380677Y0241082D01*
X0378720Y0240859D01*
X0377176Y0242087D01*
X0376953Y0244044D01*
X0378181Y0245588D01*
X0380138Y0245811D01*
X0379872Y0244882D01*
X0380836Y0244115D01*
X0380976Y0242892D01*
X0380209Y0241928D01*
X0378986Y0241788D01*
X0378022Y0242555D01*
X0377882Y0243778D01*
X0378649Y0244742D01*
X0379872Y0244882D01*
X0379606Y0243954D01*
X0379992Y0243646D01*
X0380048Y0243158D01*
X0379740Y0242772D01*
X0379252Y0242716D01*
X0378866Y0243024D01*
X0378810Y0243512D01*
X0379118Y0243898D01*
X0379606Y0243954D01*
X0378411Y0255152D02*
X0379006Y0255747D01*
X0380550Y0254519D01*
X0380773Y0252562D01*
X0379545Y0251018D01*
X0377588Y0250795D01*
X0376044Y0252023D01*
X0375821Y0253980D01*
X0377049Y0255524D01*
X0379006Y0255747D01*
X0378740Y0254818D01*
X0379704Y0254051D01*
X0379844Y0252828D01*
X0379077Y0251864D01*
X0377854Y0251724D01*
X0376890Y0252491D01*
X0376750Y0253714D01*
X0377517Y0254678D01*
X0378740Y0254818D01*
X0378474Y0253890D01*
X0378860Y0253582D01*
X0378916Y0253094D01*
X0378608Y0252708D01*
X0378120Y0252652D01*
X0377734Y0252960D01*
X0377678Y0253448D01*
X0377986Y0253834D01*
X0378474Y0253890D01*
X0360210Y0156287D02*
X0360805Y0156882D01*
X0362033Y0155338D01*
X0361810Y0153381D01*
X0360266Y0152153D01*
X0358309Y0152376D01*
X0357081Y0153920D01*
X0357304Y0155877D01*
X0358848Y0157105D01*
X0360805Y0156882D01*
X0360337Y0156036D01*
X0361104Y0155072D01*
X0360964Y0153849D01*
X0360000Y0153082D01*
X0358777Y0153222D01*
X0358010Y0154186D01*
X0358150Y0155409D01*
X0359114Y0156176D01*
X0360337Y0156036D01*
X0359868Y0155192D01*
X0360176Y0154806D01*
X0360120Y0154318D01*
X0359734Y0154010D01*
X0359246Y0154066D01*
X0358938Y0154452D01*
X0358994Y0154940D01*
X0359380Y0155248D01*
X0359868Y0155192D01*
X0359078Y0146352D02*
X0359673Y0146947D01*
X0360901Y0145403D01*
X0360678Y0143446D01*
X0359134Y0142218D01*
X0357177Y0142441D01*
X0355949Y0143985D01*
X0356172Y0145942D01*
X0357716Y0147170D01*
X0359673Y0146947D01*
X0359205Y0146101D01*
X0359972Y0145137D01*
X0359832Y0143914D01*
X0358868Y0143147D01*
X0357645Y0143287D01*
X0356878Y0144251D01*
X0357018Y0145474D01*
X0357982Y0146241D01*
X0359205Y0146101D01*
X0358736Y0145257D01*
X0359044Y0144871D01*
X0358988Y0144383D01*
X0358602Y0144075D01*
X0358114Y0144131D01*
X0357806Y0144517D01*
X0357862Y0145005D01*
X0358248Y0145313D01*
X0358736Y0145257D01*
X0378950Y0144088D02*
X0379545Y0144683D01*
X0380773Y0143139D01*
X0380550Y0141182D01*
X0379006Y0139954D01*
X0377049Y0140177D01*
X0375821Y0141721D01*
X0376044Y0143678D01*
X0377588Y0144906D01*
X0379545Y0144683D01*
X0379077Y0143837D01*
X0379844Y0142873D01*
X0379704Y0141650D01*
X0378740Y0140883D01*
X0377517Y0141023D01*
X0376750Y0141987D01*
X0376890Y0143210D01*
X0377854Y0143977D01*
X0379077Y0143837D01*
X0378608Y0142993D01*
X0378916Y0142607D01*
X0378860Y0142119D01*
X0378474Y0141811D01*
X0377986Y0141867D01*
X0377678Y0142253D01*
X0377734Y0142741D01*
X0378120Y0143049D01*
X0378608Y0142993D01*
X0380082Y0154023D02*
X0380677Y0154618D01*
X0381905Y0153074D01*
X0381682Y0151117D01*
X0380138Y0149889D01*
X0378181Y0150112D01*
X0376953Y0151656D01*
X0377176Y0153613D01*
X0378720Y0154841D01*
X0380677Y0154618D01*
X0380209Y0153772D01*
X0380976Y0152808D01*
X0380836Y0151585D01*
X0379872Y0150818D01*
X0378649Y0150958D01*
X0377882Y0151922D01*
X0378022Y0153145D01*
X0378986Y0153912D01*
X0380209Y0153772D01*
X0379740Y0152928D01*
X0380048Y0152542D01*
X0379992Y0152054D01*
X0379606Y0151746D01*
X0379118Y0151802D01*
X0378810Y0152188D01*
X0378866Y0152676D01*
X0379252Y0152984D01*
X0379740Y0152928D01*
X0352854Y0108464D02*
X0353449Y0109059D01*
X0354494Y0107386D01*
X0354051Y0105467D01*
X0352378Y0104422D01*
X0350459Y0104865D01*
X0349414Y0106538D01*
X0349857Y0108457D01*
X0351530Y0109502D01*
X0353449Y0109059D01*
X0352888Y0108272D01*
X0353541Y0107227D01*
X0353264Y0106028D01*
X0352219Y0105375D01*
X0351020Y0105652D01*
X0350367Y0106697D01*
X0350644Y0107896D01*
X0351689Y0108549D01*
X0352888Y0108272D01*
X0352327Y0107486D01*
X0352589Y0107067D01*
X0352478Y0106589D01*
X0352059Y0106327D01*
X0351581Y0106438D01*
X0351319Y0106857D01*
X0351430Y0107335D01*
X0351849Y0107597D01*
X0352327Y0107486D01*
X0350604Y0098720D02*
X0351199Y0099315D01*
X0352244Y0097642D01*
X0351801Y0095723D01*
X0350128Y0094678D01*
X0348209Y0095121D01*
X0347164Y0096794D01*
X0347607Y0098713D01*
X0349280Y0099758D01*
X0351199Y0099315D01*
X0350638Y0098528D01*
X0351291Y0097483D01*
X0351014Y0096284D01*
X0349969Y0095631D01*
X0348770Y0095908D01*
X0348117Y0096953D01*
X0348394Y0098152D01*
X0349439Y0098805D01*
X0350638Y0098528D01*
X0350077Y0097742D01*
X0350339Y0097323D01*
X0350228Y0096845D01*
X0349809Y0096583D01*
X0349331Y0096694D01*
X0349069Y0097113D01*
X0349180Y0097591D01*
X0349599Y0097853D01*
X0350077Y0097742D01*
X0370092Y0094221D02*
X0370687Y0094816D01*
X0371732Y0093143D01*
X0371289Y0091224D01*
X0369616Y0090179D01*
X0367697Y0090622D01*
X0366652Y0092295D01*
X0367095Y0094214D01*
X0368768Y0095259D01*
X0370687Y0094816D01*
X0370126Y0094029D01*
X0370779Y0092984D01*
X0370502Y0091785D01*
X0369457Y0091132D01*
X0368258Y0091409D01*
X0367605Y0092454D01*
X0367882Y0093653D01*
X0368927Y0094306D01*
X0370126Y0094029D01*
X0369565Y0093243D01*
X0369827Y0092824D01*
X0369716Y0092346D01*
X0369297Y0092084D01*
X0368819Y0092195D01*
X0368557Y0092614D01*
X0368668Y0093092D01*
X0369087Y0093354D01*
X0369565Y0093243D01*
X0372341Y0103965D02*
X0372936Y0104560D01*
X0373981Y0102887D01*
X0373538Y0100968D01*
X0371865Y0099923D01*
X0369946Y0100366D01*
X0368901Y0102039D01*
X0369344Y0103958D01*
X0371017Y0105003D01*
X0372936Y0104560D01*
X0372375Y0103773D01*
X0373028Y0102728D01*
X0372751Y0101529D01*
X0371706Y0100876D01*
X0370507Y0101153D01*
X0369854Y0102198D01*
X0370131Y0103397D01*
X0371176Y0104050D01*
X0372375Y0103773D01*
X0371814Y0102987D01*
X0372076Y0102568D01*
X0371965Y0102090D01*
X0371546Y0101828D01*
X0371068Y0101939D01*
X0370806Y0102358D01*
X0370917Y0102836D01*
X0371336Y0103098D01*
X0371814Y0102987D01*
X0340096Y0061790D02*
X0340691Y0062385D01*
X0341541Y0060605D01*
X0340883Y0058749D01*
X0339103Y0057899D01*
X0337247Y0058557D01*
X0336397Y0060337D01*
X0337055Y0062193D01*
X0338835Y0063043D01*
X0340691Y0062385D01*
X0340046Y0061667D01*
X0340576Y0060555D01*
X0340165Y0059394D01*
X0339053Y0058864D01*
X0337892Y0059275D01*
X0337362Y0060387D01*
X0337773Y0061548D01*
X0338885Y0062078D01*
X0340046Y0061667D01*
X0339399Y0060949D01*
X0339611Y0060504D01*
X0339447Y0060041D01*
X0339002Y0059829D01*
X0338539Y0059993D01*
X0338327Y0060438D01*
X0338491Y0060901D01*
X0338936Y0061113D01*
X0339399Y0060949D01*
X0336758Y0052363D02*
X0337353Y0052958D01*
X0338203Y0051178D01*
X0337545Y0049322D01*
X0335765Y0048472D01*
X0333909Y0049130D01*
X0333059Y0050910D01*
X0333717Y0052766D01*
X0335497Y0053616D01*
X0337353Y0052958D01*
X0336708Y0052240D01*
X0337238Y0051128D01*
X0336827Y0049967D01*
X0335715Y0049437D01*
X0334554Y0049848D01*
X0334024Y0050960D01*
X0334435Y0052121D01*
X0335547Y0052651D01*
X0336708Y0052240D01*
X0336061Y0051522D01*
X0336273Y0051077D01*
X0336109Y0050614D01*
X0335664Y0050402D01*
X0335201Y0050566D01*
X0334989Y0051011D01*
X0335153Y0051474D01*
X0335598Y0051686D01*
X0336061Y0051522D01*
X0355611Y0045687D02*
X0356206Y0046282D01*
X0357056Y0044502D01*
X0356398Y0042646D01*
X0354618Y0041796D01*
X0352762Y0042454D01*
X0351912Y0044234D01*
X0352570Y0046090D01*
X0354350Y0046940D01*
X0356206Y0046282D01*
X0355561Y0045564D01*
X0356091Y0044452D01*
X0355680Y0043291D01*
X0354568Y0042761D01*
X0353407Y0043172D01*
X0352877Y0044284D01*
X0353288Y0045445D01*
X0354400Y0045975D01*
X0355561Y0045564D01*
X0354914Y0044846D01*
X0355126Y0044401D01*
X0354962Y0043938D01*
X0354517Y0043726D01*
X0354054Y0043890D01*
X0353842Y0044335D01*
X0354006Y0044798D01*
X0354451Y0045010D01*
X0354914Y0044846D01*
X0358949Y0055113D02*
X0359544Y0055708D01*
X0360394Y0053928D01*
X0359736Y0052072D01*
X0357956Y0051222D01*
X0356100Y0051880D01*
X0355250Y0053660D01*
X0355908Y0055516D01*
X0357688Y0056366D01*
X0359544Y0055708D01*
X0358899Y0054990D01*
X0359429Y0053878D01*
X0359018Y0052717D01*
X0357906Y0052187D01*
X0356745Y0052598D01*
X0356215Y0053710D01*
X0356626Y0054871D01*
X0357738Y0055401D01*
X0358899Y0054990D01*
X0358252Y0054272D01*
X0358464Y0053827D01*
X0358300Y0053364D01*
X0357855Y0053152D01*
X0357392Y0053316D01*
X0357180Y0053761D01*
X0357344Y0054224D01*
X0357789Y0054436D01*
X0358252Y0054272D01*
D19*
X0361715Y0192852D03*
X0361715Y0202852D03*
X0381715Y0202852D03*
X0381715Y0192852D03*
D20*
X0371002Y0320372D03*
X0351002Y0320372D03*
X0216711Y0256553D03*
X0216711Y0226553D03*
X0216593Y0215943D03*
X0216593Y0185943D03*
X0182144Y0174093D03*
X0152144Y0174093D03*
X0106002Y0125372D03*
X0093502Y0130372D03*
X0098502Y0105372D03*
X0106002Y0095372D03*
X0068502Y0105372D03*
X0063502Y0130372D03*
X0147183Y0230175D03*
X0177183Y0230175D03*
D21*
X0044715Y0160847D02*
X0038715Y0160847D01*
X0038715Y0143047D02*
X0044715Y0143047D01*
X0044459Y0129351D02*
X0038459Y0129351D01*
X0038459Y0111551D02*
X0044459Y0111551D01*
X0045267Y0097855D02*
X0039267Y0097855D01*
X0039267Y0080055D02*
X0045267Y0080055D01*
X0019667Y0080055D02*
X0013667Y0080055D01*
X0013667Y0097855D02*
X0019667Y0097855D01*
X0018859Y0111551D02*
X0012859Y0111551D01*
X0012859Y0129351D02*
X0018859Y0129351D01*
X0019115Y0143047D02*
X0013115Y0143047D01*
X0013115Y0160847D02*
X0019115Y0160847D01*
D22*
X0038561Y0248089D03*
X0048561Y0248089D03*
X0058561Y0248089D03*
X0068561Y0248089D03*
X0078561Y0248089D03*
X0088561Y0248089D03*
X0098561Y0248089D03*
X0108561Y0248089D03*
X0118561Y0248089D03*
X0128561Y0248089D03*
X0138561Y0248089D03*
X0148561Y0248089D03*
X0158561Y0248089D03*
X0168561Y0248089D03*
X0178561Y0248089D03*
X0178561Y0308089D03*
X0168561Y0308089D03*
X0158561Y0308089D03*
X0148561Y0308089D03*
X0138561Y0308089D03*
X0128561Y0308089D03*
X0118561Y0308089D03*
X0108561Y0308089D03*
X0098561Y0308089D03*
X0088561Y0308089D03*
X0078561Y0308089D03*
X0068561Y0308089D03*
X0058561Y0308089D03*
X0048561Y0308089D03*
X0276002Y0310372D03*
X0276002Y0320372D03*
X0286002Y0320372D03*
X0286002Y0310372D03*
X0296002Y0310372D03*
X0296002Y0320372D03*
X0306002Y0320372D03*
X0306002Y0310372D03*
X0306002Y0335372D03*
X0296002Y0335372D03*
X0286002Y0335372D03*
X0276002Y0335372D03*
D23*
X0038561Y0308089D03*
D24*
X0059073Y0284467D03*
X0063994Y0278561D03*
X0055136Y0273640D03*
X0071868Y0292341D03*
X0026593Y0254939D03*
X0013797Y0247065D03*
X0017734Y0241159D03*
X0033482Y0236238D03*
X0076789Y0195884D03*
X0084663Y0195884D03*
X0099427Y0176199D03*
X0111238Y0176199D03*
X0117144Y0177183D03*
X0134860Y0172262D03*
X0136829Y0177183D03*
X0165963Y0177380D03*
X0182104Y0159467D03*
X0210648Y0186041D03*
X0225411Y0174230D03*
X0233285Y0151593D03*
X0221474Y0205726D03*
X0221474Y0211632D03*
X0190963Y0247065D03*
X0196868Y0252970D03*
X0190963Y0256907D03*
X0192931Y0261829D03*
X0212616Y0274624D03*
X0210648Y0288404D03*
X0193915Y0293325D03*
X0190963Y0302183D03*
X0194900Y0309073D03*
X0202774Y0306120D03*
X0231317Y0318915D03*
X0254939Y0313010D03*
X0262813Y0315963D03*
X0168325Y0335648D03*
X0155530Y0294309D03*
X0161435Y0261829D03*
X0139781Y0264781D03*
X0141750Y0240175D03*
X0157498Y0235254D03*
X0171081Y0198640D03*
X0116159Y0138797D03*
X0102380Y0152577D03*
X0245490Y0073049D03*
M02*
