%
M48
M72
T01C0.02400
T02C0.03150
T03C0.03200
T04C0.04000
T05C0.04400
T06C0.04724
T07C0.05200
T08C0.11811
%
T01
X116159Y138797
X102380Y152577
X99427Y176199
X111238Y176199
X117144Y177183
X134860Y172262
X136829Y177183
X165963Y177380
X182104Y159467
X210648Y186041
X225411Y174230
X233285Y151593
X221474Y205726
X221474Y211632
X190963Y247065
X196868Y252970
X190963Y256907
X192931Y261829
X212616Y274624
X210648Y288404
X193915Y293325
X190963Y302183
X194900Y309073
X202774Y306120
X231317Y318915
X254939Y313010
X262813Y315963
X168325Y335648
X155530Y294309
X161435Y261829
X139781Y264781
X141750Y240175
X157498Y235254
X171081Y198640
X84663Y195884
X76789Y195884
X33482Y236238
X17734Y241159
X13797Y247065
X26593Y254939
X55136Y273640
X59073Y284467
X63994Y278561
X71868Y292341
X245490Y73049
T02
X335631Y51044
X338969Y60471
X354484Y44368
X357822Y53794
X369192Y92719
X371441Y102463
X351954Y106962
X349704Y97218
X378297Y142430
X379429Y152365
X359557Y154629
X358425Y144694
X361715Y192852
X361715Y202852
X381715Y202852
X381715Y192852
X359557Y241071
X358425Y251007
X378297Y253271
X379429Y243335
X351962Y288747
X349712Y298490
X369200Y302989
X371449Y293246
X338973Y335230
X335635Y344657
X354488Y351333
X357826Y341906
X178561Y308089
X168561Y308089
X158561Y308089
X148561Y308089
X138561Y308089
X128561Y308089
X118561Y308089
X108561Y308089
X98561Y308089
X88561Y308089
X78561Y308089
X68561Y308089
X58561Y308089
X48561Y308089
X38561Y308089
X38561Y248089
X48561Y248089
X58561Y248089
X68561Y248089
X78561Y248089
X88561Y248089
X98561Y248089
X108561Y248089
X118561Y248089
X128561Y248089
X138561Y248089
X148561Y248089
X158561Y248089
X168561Y248089
X178561Y248089
T03
X177183Y230175
X184191Y227813
X194191Y227813
X204191Y227813
X216711Y226553
X216593Y215943
X204781Y189073
X194781Y189073
X184781Y189073
X182144Y174093
X152144Y174093
X106002Y125372
X96002Y120372
X96002Y112872
X98502Y105372
X96002Y95372
X106002Y95372
X93502Y130372
X68502Y105372
X66002Y112872
X66002Y120372
X63502Y130372
X66002Y95372
X147183Y230175
X216711Y256553
X216593Y185943
X261002Y64624
X271002Y64624
X281002Y64624
X281002Y44624
X271002Y44624
X261002Y44624
X243482Y55018
X233482Y55018
X351002Y320372
X371002Y320372
T04
X306002Y320372
X306002Y310372
X296002Y310372
X286002Y310372
X286002Y320372
X296002Y320372
X296002Y335372
X286002Y335372
X276002Y335372
X276002Y320372
X276002Y310372
X306002Y335372
X301002Y100372
X301002Y90372
X301002Y80372
X291002Y80372
X281002Y80372
X281002Y90372
X291002Y90372
X291002Y100372
X281002Y100372
X271002Y100372
X271002Y90372
X271002Y80372
X261002Y80372
X261002Y90372
X261002Y100372
X42267Y97855
X41459Y111551
X41459Y129351
X41715Y143047
X41715Y160847
X16115Y160847
X16115Y143047
X15859Y129351
X15859Y111551
X16667Y97855
X16667Y80055
X42267Y80055
T05
X121002Y115372
X121002Y125372
X161002Y125372
X161002Y115372
X181002Y115372
X181002Y125372
X221002Y125372
X221002Y115372
X206002Y320372
X196002Y320372
X196002Y330372
X206002Y330372
X246002Y330372
X246002Y320372
X156002Y320372
X156002Y330372
T06
X160215Y211356
X150215Y211356
X140215Y211356
X130215Y211356
X120215Y211356
X110215Y211356
X100215Y211356
X105215Y191356
X95215Y191356
X115215Y191356
X125215Y191356
X135215Y191356
X145215Y191356
X155215Y191356
X165215Y191356
T07
X144563Y53522
X124763Y53522
X300236Y53522
X320036Y53522
X136296Y341770
X116496Y341770
T08
X28561Y60096
X88955Y50215
X197852Y20687
X211002Y50215
X292616Y119112
X375018Y20687
X292616Y276593
X211002Y345490
X197852Y375018
X88955Y345490
X28561Y335608
X28561Y217577
X28561Y178128
X375018Y375018
M30
